<?xml version="1.0" encoding="UTF-8" standalone="no"?>
<!-- Created with Inkscape (http://www.inkscape.org/) -->

<svg
   xmlns:dc="http://purl.org/dc/elements/1.1/"
   xmlns:cc="http://creativecommons.org/ns#"
   xmlns:rdf="http://www.w3.org/1999/02/22-rdf-syntax-ns#"
   xmlns:svg="http://www.w3.org/2000/svg"
   xmlns="http://www.w3.org/2000/svg"
   xmlns:sodipodi="http://sodipodi.sourceforge.net/DTD/sodipodi-0.dtd"
   xmlns:inkscape="http://www.inkscape.org/namespaces/inkscape"
   width="480"
   height="800"
   id="svg2"
   version="1.1"
   inkscape:version="0.48.4 r9939"
   sodipodi:docname="touchMatchGame.svg">
  <defs
     id="defs4" />
  <sodipodi:namedview
     id="base"
     pagecolor="#ffffff"
     bordercolor="#666666"
     borderopacity="1.0"
     inkscape:pageopacity="0.0"
     inkscape:pageshadow="2"
     inkscape:zoom="1.4"
     inkscape:cx="91.486956"
     inkscape:cy="439.96852"
     inkscape:document-units="px"
     inkscape:current-layer="layer1"
     showgrid="false"
     inkscape:window-width="1920"
     inkscape:window-height="1028"
     inkscape:window-x="-8"
     inkscape:window-y="-8"
     inkscape:window-maximized="1"
     showguides="true"
     inkscape:guide-bbox="true"
     inkscape:showpageshadow="false">
    <inkscape:grid
       type="xygrid"
       id="grid4511"
       empspacing="5"
       visible="true"
       enabled="true"
       snapvisiblegridlinesonly="true" />
  </sodipodi:namedview>
  <metadata
     id="metadata7">
    <rdf:RDF>
      <cc:Work
         rdf:about="">
        <dc:format>image/svg+xml</dc:format>
        <dc:type
           rdf:resource="http://purl.org/dc/dcmitype/StillImage" />
        <dc:title></dc:title>
      </cc:Work>
    </rdf:RDF>
  </metadata>
  <g
     inkscape:label="Layer 1"
     inkscape:groupmode="layer"
     id="layer1"
     transform="translate(0,-252.36215)">
    <rect
       style="fill:none;stroke:#000000;stroke-width:1"
       id="rect4503"
       width="158.42857"
       height="264.71429"
       x="-628.82001"
       y="330.5538" />
    <rect
       y="633.09448"
       x="-628.82001"
       height="264.71429"
       width="158.42857"
       id="rect4507"
       style="fill:none;stroke:#000000;stroke-width:1" />
    <g
       id="g4542"
       transform="matrix(0.84783777,0,0,0.84783777,212.63074,29.656495)">
      <path
         transform="translate(238.396,227.6134)"
         d="m -1097.5307,282.80191 c 0,22.03673 -17.8643,39.90102 -39.9011,39.90102 -22.0367,0 -39.901,-17.86429 -39.901,-39.90102 0,-22.03673 17.8643,-39.90102 39.901,-39.90102 22.0368,0 39.9011,17.86429 39.9011,39.90102 z"
         sodipodi:ry="39.901024"
         sodipodi:rx="39.901024"
         sodipodi:cy="282.80191"
         sodipodi:cx="-1137.4318"
         id="path4509"
         style="fill:#ff2a2a;stroke:none"
         sodipodi:type="arc" />
      <path
         inkscape:connector-curvature="0"
         id="path4515"
         d="m -907.19725,494.40144 22.88898,16.01387 -22.88898,16.01387 z"
         style="fill:#ffffff;stroke:none" />
    </g>
    <text
       xml:space="preserve"
       style="font-size:13px;font-style:normal;font-weight:normal;line-height:125%;letter-spacing:0px;word-spacing:0px;fill:#000000;fill-opacity:1;stroke:none;font-family:Sans"
       x="-630.28485"
       y="323.03201"
       id="text4558"
       sodipodi:linespacing="125%"><tspan
         sodipodi:role="line"
         id="tspan4560"
         x="-630.28485"
         y="323.03201">Menu</tspan></text>
    <text
       sodipodi:linespacing="125%"
       id="text4562"
       y="295.00027"
       x="-915.90552"
       style="font-size:13px;font-style:normal;font-weight:normal;line-height:125%;letter-spacing:0px;word-spacing:0px;fill:#000000;fill-opacity:1;stroke:none;font-family:Sans"
       xml:space="preserve"><tspan
         y="295.00027"
         x="-915.90552"
         sodipodi:role="line"
         style="font-size:10px"
         id="tspan4566" /></text>
    <flowRoot
       xml:space="preserve"
       id="flowRoot4570"
       style="fill:black;stroke:none;stroke-opacity:1;stroke-width:1px;stroke-linejoin:miter;stroke-linecap:butt;fill-opacity:1;font-family:Sans;font-style:normal;font-weight:normal;font-size:9px;line-height:125%;letter-spacing:0px;word-spacing:0px"><flowRegion
         id="flowRegion4572"><rect
           id="rect4574"
           width="159.28572"
           height="162.14285"
           x="-928.57141"
           y="-106.42857"
           style="font-size:9px" /></flowRegion><flowPara
         id="flowPara4576"></flowPara></flowRoot>    <text
       xml:space="preserve"
       style="font-size:13px;font-style:normal;font-weight:normal;line-height:125%;letter-spacing:0px;word-spacing:0px;fill:#000000;fill-opacity:1;stroke:none;font-family:Sans"
       x="-464.91779"
       y="337.84445"
       id="text4584"
       sodipodi:linespacing="125%"><tspan
         sodipodi:role="line"
         id="tspan4586"
         x="-464.91779"
         y="337.84445"
         style="font-size:10px">우선스타트 메뉴만 넣고 </tspan><tspan
         sodipodi:role="line"
         x="-464.91779"
         y="351.32657"
         style="font-size:10px"
         id="tspan4588">추후에 다른 기능에 대한 것들이 </tspan><tspan
         sodipodi:role="line"
         x="-464.91779"
         y="364.80872"
         style="font-size:10px"
         id="tspan4590">생기면 해당 메뉴를 집어 넣을 것.</tspan></text>
    <text
       sodipodi:linespacing="125%"
       id="text4592"
       y="628.60315"
       x="-630.28485"
       style="font-size:13px;font-style:normal;font-weight:normal;line-height:125%;letter-spacing:0px;word-spacing:0px;fill:#000000;fill-opacity:1;stroke:none;font-family:Sans"
       xml:space="preserve"><tspan
         y="628.60315"
         x="-630.28485"
         id="tspan4594"
         sodipodi:role="line">Game</tspan></text>
    <g
       id="g4604"
       transform="translate(297.91225,0)">
      <path
         transform="translate(95.206877,222.56265)"
         d="m -974.03959,138.47635 c 0,5.9276 -4.80527,10.73287 -10.73287,10.73287 -5.9276,0 -10.73287,-4.80527 -10.73287,-10.73287 0,-5.9276 4.80527,-10.73287 10.73287,-10.73287 5.9276,0 10.73287,4.80527 10.73287,10.73287 z"
         sodipodi:ry="10.732871"
         sodipodi:rx="10.732871"
         sodipodi:cy="138.47635"
         sodipodi:cx="-984.77246"
         id="path4596"
         style="fill:#2c89a0;fill-opacity:1;stroke:none"
         sodipodi:type="arc" />
      <path
         sodipodi:type="arc"
         style="fill:#8d5fd3;fill-opacity:1;stroke:none"
         id="path4598"
         sodipodi:cx="-984.77246"
         sodipodi:cy="138.47635"
         sodipodi:rx="10.732871"
         sodipodi:ry="10.732871"
         d="m -974.03959,138.47635 c 0,5.9276 -4.80527,10.73287 -10.73287,10.73287 -5.9276,0 -10.73287,-4.80527 -10.73287,-10.73287 0,-5.9276 4.80527,-10.73287 10.73287,-10.73287 5.9276,0 10.73287,4.80527 10.73287,10.73287 z"
         transform="translate(123.23857,222.56265)" />
      <path
         transform="translate(151.27032,222.56265)"
         d="m -974.03959,138.47635 c 0,5.9276 -4.80527,10.73287 -10.73287,10.73287 -5.9276,0 -10.73287,-4.80527 -10.73287,-10.73287 0,-5.9276 4.80527,-10.73287 10.73287,-10.73287 5.9276,0 10.73287,4.80527 10.73287,10.73287 z"
         sodipodi:ry="10.732871"
         sodipodi:rx="10.732871"
         sodipodi:cy="138.47635"
         sodipodi:cx="-984.77246"
         id="path4600"
         style="fill:#ffcc00;fill-opacity:1;stroke:none"
         sodipodi:type="arc" />
      <path
         sodipodi:type="arc"
         style="fill:#88aa00;fill-opacity:1;stroke:none"
         id="path4602"
         sodipodi:cx="-984.77246"
         sodipodi:cy="138.47635"
         sodipodi:rx="10.732871"
         sodipodi:ry="10.732871"
         d="m -974.03959,138.47635 c 0,5.9276 -4.80527,10.73287 -10.73287,10.73287 -5.9276,0 -10.73287,-4.80527 -10.73287,-10.73287 0,-5.9276 4.80527,-10.73287 10.73287,-10.73287 5.9276,0 10.73287,4.80527 10.73287,10.73287 z"
         transform="translate(179.30208,222.56265)" />
    </g>
    <path
       style="fill:#d45500;fill-opacity:1;stroke:none"
       d="m 0,252.36212 0,800.00008 480,0 0,-800.00008 -480,0 z m 46.46875,130.28125 389.875,0 c 15.46652,0 27.9375,12.47098 27.9375,27.9375 l 0,540.9375 c 0,15.46652 -12.47098,27.90625 -27.9375,27.90625 l -389.875,0 c -15.46652,0 -27.90625,-12.43973 -27.90625,-27.90625 l 0,-540.9375 c 0,-15.46652 12.43973,-27.9375 27.90625,-27.9375 z"
       id="rect4610"
       inkscape:connector-curvature="0" />
    <g
       id="g4777"
       transform="translate(0,-18.182746)">
      <path
         inkscape:connector-curvature="0"
         id="path4178"
         d="m 426.82949,914.71816 c -14.73984,0 -26.69582,11.94224 -26.69582,26.6821 0,14.73986 11.95598,26.69579 26.69582,26.69579 14.73985,0 26.68207,-11.95593 26.68207,-26.69579 0,-14.73986 -11.94222,-26.6821 -26.68207,-26.6821 z m 0,15.01298 c 6.44868,0 11.66911,5.22044 11.66911,11.66912 0,6.44867 -5.22043,11.68282 -11.66911,11.68282 -6.44868,0 -11.68286,-5.23415 -11.68286,-11.68282 0,-6.44868 5.23418,-11.66912 11.68286,-11.66912 z"
         style="fill:#e6e6e6;fill-opacity:1;stroke:none" />
      <path
         style="fill:#e6e6e6;fill-opacity:1;stroke:none"
         d="m 320.07371,861.34027 c -14.73984,0 -26.69582,11.94224 -26.69582,26.6821 0,14.73986 11.95598,26.69579 26.69582,26.69579 14.73986,0 26.68207,-11.95593 26.68207,-26.69579 0,-14.73986 -11.94221,-26.6821 -26.68207,-26.6821 z m 0,15.01298 c 6.44868,0 11.66911,5.22044 11.66911,11.66912 0,6.44867 -5.22043,11.68282 -11.66911,11.68282 -6.44868,0 -11.68286,-5.23415 -11.68286,-11.68282 0,-6.44868 5.23418,-11.66912 11.68286,-11.66912 z"
         id="path4183"
         inkscape:connector-curvature="0" />
      <path
         inkscape:connector-curvature="0"
         id="path4185"
         d="m 213.31793,807.96238 c -14.73984,0 -26.69581,11.94224 -26.69581,26.6821 0,14.73986 11.95597,26.69579 26.69581,26.69579 14.73986,0 26.68207,-11.95593 26.68207,-26.69579 0,-14.73986 -11.94221,-26.6821 -26.68207,-26.6821 z m 0,15.01299 c 6.44868,0 11.66911,5.22043 11.66911,11.66911 0,6.44867 -5.22043,11.68282 -11.66911,11.68282 -6.44868,0 -11.68286,-5.23415 -11.68286,-11.68282 0,-6.44868 5.23418,-11.66911 11.68286,-11.66911 z"
         style="fill:#e6e6e6;fill-opacity:1;stroke:none" />
      <path
         style="fill:#e6e6e6;fill-opacity:1;stroke:none"
         d="m 106.56216,754.58449 c -14.739848,0 -26.695827,11.94224 -26.695827,26.6821 0,14.73987 11.955979,26.69579 26.695827,26.69579 14.73985,0 26.68207,-11.95592 26.68207,-26.69579 0,-14.73986 -11.94222,-26.6821 -26.68207,-26.6821 z m 0,15.01299 c 6.44867,0 11.6691,5.22044 11.6691,11.66911 0,6.44867 -5.22043,11.68282 -11.6691,11.68282 -6.44869,0 -11.68287,-5.23415 -11.68287,-11.68282 0,-6.44867 5.23418,-11.66911 11.68287,-11.66911 z"
         id="path4187"
         inkscape:connector-curvature="0" />
      <path
         inkscape:connector-curvature="0"
         id="path4189"
         d="m 426.82949,647.82872 c -14.73984,0 -26.69582,11.94221 -26.69582,26.68207 0,14.73984 11.95598,26.69582 26.69582,26.69582 14.73985,0 26.68207,-11.95598 26.68207,-26.69582 0,-14.73986 -11.94222,-26.68207 -26.68207,-26.68207 z m 0,15.01296 c 6.44868,0 11.66911,5.22043 11.66911,11.66911 0,6.44868 -5.22043,11.68286 -11.66911,11.68286 -6.44868,0 -11.68286,-5.23418 -11.68286,-11.68286 0,-6.44868 5.23418,-11.66911 11.68286,-11.66911 z"
         style="fill:#e6e6e6;fill-opacity:1;stroke:none" />
      <path
         style="fill:#e6e6e6;fill-opacity:1;stroke:none"
         d="m 320.07371,594.45083 c -14.73984,0 -26.69582,11.94221 -26.69582,26.68207 0,14.73984 11.95598,26.69582 26.69582,26.69582 14.73986,0 26.68207,-11.95598 26.68207,-26.69582 0,-14.73986 -11.94221,-26.68207 -26.68207,-26.68207 z m 0,15.01296 c 6.44868,0 11.66911,5.22043 11.66911,11.66911 0,6.44868 -5.22043,11.68286 -11.66911,11.68286 -6.44868,0 -11.68286,-5.23418 -11.68286,-11.68286 0,-6.44868 5.23418,-11.66911 11.68286,-11.66911 z"
         id="path4191"
         inkscape:connector-curvature="0" />
      <path
         inkscape:connector-curvature="0"
         id="path4193"
         d="m 213.31793,541.07294 c -14.73984,0 -26.69581,11.94221 -26.69581,26.68207 0,14.73984 11.95597,26.69582 26.69581,26.69582 14.73986,0 26.68207,-11.95598 26.68207,-26.69582 0,-14.73986 -11.94221,-26.68207 -26.68207,-26.68207 z m 0,15.01296 c 6.44868,0 11.66911,5.22043 11.66911,11.66911 0,6.44868 -5.22043,11.68286 -11.66911,11.68286 -6.44868,0 -11.68286,-5.23418 -11.68286,-11.68286 0,-6.44868 5.23418,-11.66911 11.68286,-11.66911 z"
         style="fill:#e6e6e6;fill-opacity:1;stroke:none" />
      <path
         style="fill:#e6e6e6;fill-opacity:1;stroke:none"
         d="m 106.56216,487.69505 c -14.739848,0 -26.695827,11.94222 -26.695827,26.68207 0,14.73984 11.955979,26.69582 26.695827,26.69582 14.73985,0 26.68207,-11.95598 26.68207,-26.69582 0,-14.73985 -11.94222,-26.68207 -26.68207,-26.68207 z m 0,15.01296 c 6.44867,0 11.6691,5.22043 11.6691,11.66911 0,6.44868 -5.22043,11.68286 -11.6691,11.68286 -6.44869,0 -11.68287,-5.23418 -11.68287,-11.68286 0,-6.44868 5.23418,-11.66911 11.68287,-11.66911 z"
         id="path4195"
         inkscape:connector-curvature="0" />
      <path
         style="fill:#e6e6e6;fill-opacity:1;stroke:none"
         d="m 373.4516,914.71816 c -14.73984,0 -26.69582,11.94224 -26.69582,26.6821 0,14.73986 11.95598,26.69579 26.69582,26.69579 14.73985,0 26.68207,-11.95593 26.68207,-26.69579 0,-14.73986 -11.94222,-26.6821 -26.68207,-26.6821 z m 0,15.01298 c 6.44868,0 11.66911,5.22044 11.66911,11.66912 0,6.44867 -5.22043,11.68282 -11.66911,11.68282 -6.44868,0 -11.68286,-5.23415 -11.68286,-11.68282 0,-6.44868 5.23418,-11.66912 11.68286,-11.66912 z"
         id="path4197"
         inkscape:connector-curvature="0" />
      <path
         inkscape:connector-curvature="0"
         id="path4199"
         d="m 266.69582,861.34027 c -14.73984,0 -26.69582,11.94224 -26.69582,26.6821 0,14.73986 11.95598,26.69579 26.69582,26.69579 14.73986,0 26.68207,-11.95593 26.68207,-26.69579 0,-14.73986 -11.94221,-26.6821 -26.68207,-26.6821 z m 0,15.01298 c 6.44868,0 11.66911,5.22044 11.66911,11.66912 0,6.44867 -5.22043,11.68282 -11.66911,11.68282 -6.44868,0 -11.68286,-5.23415 -11.68286,-11.68282 0,-6.44868 5.23418,-11.66912 11.68286,-11.66912 z"
         style="fill:#e6e6e6;fill-opacity:1;stroke:none" />
      <path
         style="fill:#e6e6e6;fill-opacity:1;stroke:none"
         d="m 159.94004,807.96238 c -14.73984,0 -26.69581,11.94224 -26.69581,26.6821 0,14.73986 11.95597,26.69579 26.69581,26.69579 14.73986,0 26.68208,-11.95593 26.68208,-26.69579 0,-14.73986 -11.94222,-26.6821 -26.68208,-26.6821 z m 0,15.01299 c 6.44868,0 11.66911,5.22043 11.66911,11.66911 0,6.44867 -5.22043,11.68282 -11.66911,11.68282 -6.44868,0 -11.68286,-5.23415 -11.68286,-11.68282 0,-6.44868 5.23418,-11.66911 11.68286,-11.66911 z"
         id="path4201"
         inkscape:connector-curvature="0" />
      <path
         inkscape:connector-curvature="0"
         id="path4203"
         d="m 53.184265,754.58449 c -14.739841,0 -26.695821,11.94224 -26.695821,26.6821 0,14.73987 11.95598,26.69579 26.695821,26.69579 14.73985,0 26.682068,-11.95592 26.682068,-26.69579 0,-14.73986 -11.942218,-26.6821 -26.682068,-26.6821 z m 0,15.01299 c 6.448681,0 11.66911,5.22044 11.66911,11.66911 0,6.44867 -5.220429,11.68282 -11.66911,11.68282 -6.448681,0 -11.682863,-5.23415 -11.682863,-11.68282 0,-6.44867 5.234182,-11.66911 11.682863,-11.66911 z"
         style="fill:#e6e6e6;fill-opacity:1;stroke:none" />
      <path
         style="fill:#e6e6e6;fill-opacity:1;stroke:none"
         d="m 373.4516,647.82872 c -14.73984,0 -26.69582,11.94221 -26.69582,26.68207 0,14.73984 11.95598,26.69582 26.69582,26.69582 14.73985,0 26.68207,-11.95598 26.68207,-26.69582 0,-14.73986 -11.94222,-26.68207 -26.68207,-26.68207 z m 0,15.01296 c 6.44868,0 11.66911,5.22043 11.66911,11.66911 0,6.44868 -5.22043,11.68286 -11.66911,11.68286 -6.44868,0 -11.68286,-5.23418 -11.68286,-11.68286 0,-6.44868 5.23418,-11.66911 11.68286,-11.66911 z"
         id="path4205"
         inkscape:connector-curvature="0" />
      <path
         inkscape:connector-curvature="0"
         id="path4207"
         d="M 266.69582,594.45083 C 251.95598,594.45083 240,606.39304 240,621.1329 c 0,14.73984 11.95598,26.69582 26.69582,26.69582 14.73986,0 26.68207,-11.95598 26.68207,-26.69582 0,-14.73986 -11.94221,-26.68207 -26.68207,-26.68207 z m 0,15.01296 c 6.44868,0 11.66911,5.22043 11.66911,11.66911 0,6.44868 -5.22043,11.68286 -11.66911,11.68286 -6.44868,0 -11.68286,-5.23418 -11.68286,-11.68286 0,-6.44868 5.23418,-11.66911 11.68286,-11.66911 z"
         style="fill:#e6e6e6;fill-opacity:1;stroke:none" />
      <path
         style="fill:#e6e6e6;fill-opacity:1;stroke:none"
         d="m 159.94004,541.07294 c -14.73984,0 -26.69581,11.94221 -26.69581,26.68207 0,14.73984 11.95597,26.69582 26.69581,26.69582 14.73986,0 26.68208,-11.95598 26.68208,-26.69582 0,-14.73986 -11.94222,-26.68207 -26.68208,-26.68207 z m 0,15.01296 c 6.44868,0 11.66911,5.22043 11.66911,11.66911 0,6.44868 -5.22043,11.68286 -11.66911,11.68286 -6.44868,0 -11.68286,-5.23418 -11.68286,-11.68286 0,-6.44868 5.23418,-11.66911 11.68286,-11.66911 z"
         id="path4209"
         inkscape:connector-curvature="0" />
      <path
         inkscape:connector-curvature="0"
         id="path4211"
         d="m 53.184265,487.69505 c -14.739841,0 -26.695821,11.94222 -26.695821,26.68207 0,14.73984 11.95598,26.69582 26.695821,26.69582 14.73985,0 26.682068,-11.95598 26.682068,-26.69582 0,-14.73985 -11.942218,-26.68207 -26.682068,-26.68207 z m 0,15.01296 c 6.448681,0 11.66911,5.22043 11.66911,11.66911 0,6.44868 -5.220429,11.68286 -11.66911,11.68286 -6.448681,0 -11.682863,-5.23418 -11.682863,-11.68286 0,-6.44868 5.234182,-11.66911 11.682863,-11.66911 z"
         style="fill:#e6e6e6;fill-opacity:1;stroke:none" />
      <path
         inkscape:connector-curvature="0"
         id="path4213"
         d="m 320.07371,914.71816 c -14.73984,0 -26.69582,11.94224 -26.69582,26.6821 0,14.73986 11.95598,26.69579 26.69582,26.69579 14.73986,0 26.68207,-11.95593 26.68207,-26.69579 0,-14.73986 -11.94221,-26.6821 -26.68207,-26.6821 z m 0,15.01298 c 6.44868,0 11.66911,5.22044 11.66911,11.66912 0,6.44867 -5.22043,11.68282 -11.66911,11.68282 -6.44868,0 -11.68286,-5.23415 -11.68286,-11.68282 0,-6.44868 5.23418,-11.66912 11.68286,-11.66912 z"
         style="fill:#e6e6e6;fill-opacity:1;stroke:none" />
      <path
         style="fill:#e6e6e6;fill-opacity:1;stroke:none"
         d="m 213.31793,861.34027 c -14.73984,0 -26.69581,11.94224 -26.69581,26.6821 0,14.73986 11.95597,26.69579 26.69581,26.69579 14.73986,0 26.68207,-11.95593 26.68207,-26.69579 0,-14.73986 -11.94221,-26.6821 -26.68207,-26.6821 z m 0,15.01298 c 6.44868,0 11.66911,5.22044 11.66911,11.66912 0,6.44867 -5.22043,11.68282 -11.66911,11.68282 -6.44868,0 -11.68286,-5.23415 -11.68286,-11.68282 0,-6.44868 5.23418,-11.66912 11.68286,-11.66912 z"
         id="path4215"
         inkscape:connector-curvature="0" />
      <path
         inkscape:connector-curvature="0"
         id="path4217"
         d="m 106.56216,807.96238 c -14.739848,0 -26.695827,11.94224 -26.695827,26.6821 0,14.73986 11.955979,26.69579 26.695827,26.69579 14.73985,0 26.68207,-11.95593 26.68207,-26.69579 0,-14.73986 -11.94222,-26.6821 -26.68207,-26.6821 z m 0,15.01299 c 6.44867,0 11.6691,5.22043 11.6691,11.66911 0,6.44867 -5.22043,11.68282 -11.6691,11.68282 -6.44869,0 -11.68287,-5.23415 -11.68287,-11.68282 0,-6.44868 5.23418,-11.66911 11.68287,-11.66911 z"
         style="fill:#e6e6e6;fill-opacity:1;stroke:none" />
      <path
         style="fill:#e6e6e6;fill-opacity:1;stroke:none"
         d="m 426.82949,701.20661 c -14.73984,0 -26.69582,11.94221 -26.69582,26.68207 0,14.73989 11.95598,26.69581 26.69582,26.69581 14.73985,0 26.68207,-11.95592 26.68207,-26.69581 0,-14.73986 -11.94222,-26.68207 -26.68207,-26.68207 z m 0,15.01296 c 6.44868,0 11.66911,5.22043 11.66911,11.66911 0,6.44869 -5.22043,11.68284 -11.66911,11.68284 -6.44868,0 -11.68286,-5.23415 -11.68286,-11.68284 0,-6.44868 5.23418,-11.66911 11.68286,-11.66911 z"
         id="path4219"
         inkscape:connector-curvature="0" />
      <path
         inkscape:connector-curvature="0"
         id="path4221"
         d="m 320.07371,647.82872 c -14.73984,0 -26.69582,11.94221 -26.69582,26.68207 0,14.73984 11.95598,26.69582 26.69582,26.69582 14.73986,0 26.68207,-11.95598 26.68207,-26.69582 0,-14.73986 -11.94221,-26.68207 -26.68207,-26.68207 z m 0,15.01296 c 6.44868,0 11.66911,5.22043 11.66911,11.66911 0,6.44868 -5.22043,11.68286 -11.66911,11.68286 -6.44868,0 -11.68286,-5.23418 -11.68286,-11.68286 0,-6.44868 5.23418,-11.66911 11.68286,-11.66911 z"
         style="fill:#e6e6e6;fill-opacity:1;stroke:none" />
      <path
         style="fill:#e6e6e6;fill-opacity:1;stroke:none"
         d="m 213.31793,594.45083 c -14.73984,0 -26.69581,11.94221 -26.69581,26.68207 0,14.73984 11.95597,26.69582 26.69581,26.69582 14.73986,0 26.68207,-11.95598 26.68207,-26.69582 0,-14.73986 -11.94221,-26.68207 -26.68207,-26.68207 z m 0,15.01296 c 6.44868,0 11.66911,5.22043 11.66911,11.66911 0,6.44868 -5.22043,11.68286 -11.66911,11.68286 -6.44868,0 -11.68286,-5.23418 -11.68286,-11.68286 0,-6.44868 5.23418,-11.66911 11.68286,-11.66911 z"
         id="path4223"
         inkscape:connector-curvature="0" />
      <path
         inkscape:connector-curvature="0"
         id="path4225"
         d="m 106.56216,541.07294 c -14.739848,0 -26.695827,11.94221 -26.695827,26.68207 0,14.73984 11.955979,26.69582 26.695827,26.69582 14.73985,0 26.68207,-11.95598 26.68207,-26.69582 0,-14.73986 -11.94222,-26.68207 -26.68207,-26.68207 z m 0,15.01296 c 6.44867,0 11.6691,5.22043 11.6691,11.66911 0,6.44868 -5.22043,11.68286 -11.6691,11.68286 -6.44869,0 -11.68287,-5.23418 -11.68287,-11.68286 0,-6.44868 5.23418,-11.66911 11.68287,-11.66911 z"
         style="fill:#e6e6e6;fill-opacity:1;stroke:none" />
      <path
         style="fill:#e6e6e6;fill-opacity:1;stroke:none"
         d="m 266.69582,914.71816 c -14.73984,0 -26.69582,11.94224 -26.69582,26.6821 0,14.73986 11.95598,26.69579 26.69582,26.69579 14.73986,0 26.68207,-11.95593 26.68207,-26.69579 0,-14.73986 -11.94221,-26.6821 -26.68207,-26.6821 z m 0,15.01298 c 6.44868,0 11.66911,5.22044 11.66911,11.66912 0,6.44867 -5.22043,11.68282 -11.66911,11.68282 -6.44868,0 -11.68286,-5.23415 -11.68286,-11.68282 0,-6.44868 5.23418,-11.66912 11.68286,-11.66912 z"
         id="path4229"
         inkscape:connector-curvature="0" />
      <path
         inkscape:connector-curvature="0"
         id="path4231"
         d="m 159.94004,861.34027 c -14.73984,0 -26.69581,11.94224 -26.69581,26.6821 0,14.73986 11.95597,26.69579 26.69581,26.69579 14.73986,0 26.68208,-11.95593 26.68208,-26.69579 0,-14.73986 -11.94222,-26.6821 -26.68208,-26.6821 z m 0,15.01298 c 6.44868,0 11.66911,5.22044 11.66911,11.66912 0,6.44867 -5.22043,11.68282 -11.66911,11.68282 -6.44868,0 -11.68286,-5.23415 -11.68286,-11.68282 0,-6.44868 5.23418,-11.66912 11.68286,-11.66912 z"
         style="fill:#e6e6e6;fill-opacity:1;stroke:none" />
      <path
         style="fill:#e6e6e6;fill-opacity:1;stroke:none"
         d="m 53.184265,807.96238 c -14.739841,0 -26.695821,11.94224 -26.695821,26.6821 0,14.73986 11.95598,26.69579 26.695821,26.69579 14.73985,0 26.682068,-11.95593 26.682068,-26.69579 0,-14.73986 -11.942218,-26.6821 -26.682068,-26.6821 z m 0,15.01299 c 6.448681,0 11.66911,5.22043 11.66911,11.66911 0,6.44867 -5.220429,11.68282 -11.66911,11.68282 -6.448681,0 -11.682863,-5.23415 -11.682863,-11.68282 0,-6.44868 5.234182,-11.66911 11.682863,-11.66911 z"
         id="path4233"
         inkscape:connector-curvature="0" />
      <path
         inkscape:connector-curvature="0"
         id="path4235"
         d="m 373.4516,701.20661 c -14.73984,0 -26.69582,11.94221 -26.69582,26.68207 0,14.73989 11.95598,26.69581 26.69582,26.69581 14.73985,0 26.68207,-11.95592 26.68207,-26.69581 0,-14.73986 -11.94222,-26.68207 -26.68207,-26.68207 z m 0,15.01296 c 6.44868,0 11.66911,5.22043 11.66911,11.66911 0,6.44869 -5.22043,11.68284 -11.66911,11.68284 -6.44868,0 -11.68286,-5.23415 -11.68286,-11.68284 0,-6.44868 5.23418,-11.66911 11.68286,-11.66911 z"
         style="fill:#e6e6e6;fill-opacity:1;stroke:none" />
      <path
         style="fill:#e6e6e6;fill-opacity:1;stroke:none"
         d="m 266.69582,647.82872 c -14.73984,0 -26.69582,11.94221 -26.69582,26.68207 0,14.73984 11.95598,26.69582 26.69582,26.69582 14.73986,0 26.68207,-11.95598 26.68207,-26.69582 0,-14.73986 -11.94221,-26.68207 -26.68207,-26.68207 z m 0,15.01296 c 6.44868,0 11.66911,5.22043 11.66911,11.66911 0,6.44868 -5.22043,11.68286 -11.66911,11.68286 -6.44868,0 -11.68286,-5.23418 -11.68286,-11.68286 0,-6.44868 5.23418,-11.66911 11.68286,-11.66911 z"
         id="path4237"
         inkscape:connector-curvature="0" />
      <path
         inkscape:connector-curvature="0"
         id="path4239"
         d="m 159.94004,594.45083 c -14.73984,0 -26.69581,11.94221 -26.69581,26.68207 0,14.73984 11.95597,26.69582 26.69581,26.69582 14.73986,0 26.68208,-11.95598 26.68208,-26.69582 0,-14.73986 -11.94222,-26.68207 -26.68208,-26.68207 z m 0,15.01296 c 6.44868,0 11.66911,5.22043 11.66911,11.66911 0,6.44868 -5.22043,11.68286 -11.66911,11.68286 -6.44868,0 -11.68286,-5.23418 -11.68286,-11.68286 0,-6.44868 5.23418,-11.66911 11.68286,-11.66911 z"
         style="fill:#e6e6e6;fill-opacity:1;stroke:none" />
      <path
         style="fill:#e6e6e6;fill-opacity:1;stroke:none"
         d="m 53.184265,541.07294 c -14.739841,0 -26.695821,11.94221 -26.695821,26.68207 0,14.73984 11.95598,26.69582 26.695821,26.69582 14.73985,0 26.682068,-11.95598 26.682068,-26.69582 0,-14.73986 -11.942218,-26.68207 -26.682068,-26.68207 z m 0,15.01296 c 6.448681,0 11.66911,5.22043 11.66911,11.66911 0,6.44868 -5.220429,11.68286 -11.66911,11.68286 -6.448681,0 -11.682863,-5.23418 -11.682863,-11.68286 0,-6.44868 5.234182,-11.66911 11.682863,-11.66911 z"
         id="path4241"
         inkscape:connector-curvature="0" />
      <path
         inkscape:connector-curvature="0"
         id="path4245"
         d="m 213.31793,914.71816 c -14.73984,0 -26.69581,11.94224 -26.69581,26.6821 0,14.73986 11.95597,26.69579 26.69581,26.69579 14.73986,0 26.68207,-11.95593 26.68207,-26.69579 0,-14.73986 -11.94221,-26.6821 -26.68207,-26.6821 z m 0,15.01298 c 6.44868,0 11.66911,5.22044 11.66911,11.66912 0,6.44867 -5.22043,11.68282 -11.66911,11.68282 -6.44868,0 -11.68286,-5.23415 -11.68286,-11.68282 0,-6.44868 5.23418,-11.66912 11.68286,-11.66912 z"
         style="fill:#e6e6e6;fill-opacity:1;stroke:none" />
      <path
         style="fill:#e6e6e6;fill-opacity:1;stroke:none"
         d="m 106.56216,861.34027 c -14.739848,0 -26.695827,11.94224 -26.695827,26.6821 0,14.73986 11.955979,26.69579 26.695827,26.69579 14.73985,0 26.68207,-11.95593 26.68207,-26.69579 0,-14.73986 -11.94222,-26.6821 -26.68207,-26.6821 z m 0,15.01298 c 6.44867,0 11.6691,5.22044 11.6691,11.66912 0,6.44867 -5.22043,11.68282 -11.6691,11.68282 -6.44869,0 -11.68287,-5.23415 -11.68287,-11.68282 0,-6.44868 5.23418,-11.66912 11.68287,-11.66912 z"
         id="path4247"
         inkscape:connector-curvature="0" />
      <path
         inkscape:connector-curvature="0"
         id="path4249"
         d="m 426.82949,754.58449 c -14.73984,0 -26.69582,11.94224 -26.69582,26.6821 0,14.73987 11.95598,26.69579 26.69582,26.69579 14.73985,0 26.68207,-11.95592 26.68207,-26.69579 0,-14.73986 -11.94222,-26.6821 -26.68207,-26.6821 z m 0,15.01299 c 6.44868,0 11.66911,5.22044 11.66911,11.66911 0,6.44867 -5.22043,11.68282 -11.66911,11.68282 -6.44868,0 -11.68286,-5.23415 -11.68286,-11.68282 0,-6.44867 5.23418,-11.66911 11.68286,-11.66911 z"
         style="fill:#e6e6e6;fill-opacity:1;stroke:none" />
      <path
         style="fill:#e6e6e6;fill-opacity:1;stroke:none"
         d="m 320.07371,701.20661 c -14.73984,0 -26.69582,11.94221 -26.69582,26.68207 0,14.73989 11.95598,26.69581 26.69582,26.69581 14.73986,0 26.68207,-11.95592 26.68207,-26.69581 0,-14.73986 -11.94221,-26.68207 -26.68207,-26.68207 z m 0,15.01296 c 6.44868,0 11.66911,5.22043 11.66911,11.66911 0,6.44869 -5.22043,11.68284 -11.66911,11.68284 -6.44868,0 -11.68286,-5.23415 -11.68286,-11.68284 0,-6.44868 5.23418,-11.66911 11.68286,-11.66911 z"
         id="path4251"
         inkscape:connector-curvature="0" />
      <path
         inkscape:connector-curvature="0"
         id="path4253"
         d="m 213.31793,647.82872 c -14.73984,0 -26.69581,11.94221 -26.69581,26.68207 0,14.73984 11.95597,26.69582 26.69581,26.69582 14.73986,0 26.68207,-11.95598 26.68207,-26.69582 0,-14.73986 -11.94221,-26.68207 -26.68207,-26.68207 z m 0,15.01296 c 6.44868,0 11.66911,5.22043 11.66911,11.66911 0,6.44868 -5.22043,11.68286 -11.66911,11.68286 -6.44868,0 -11.68286,-5.23418 -11.68286,-11.68286 0,-6.44868 5.23418,-11.66911 11.68286,-11.66911 z"
         style="fill:#e6e6e6;fill-opacity:1;stroke:none" />
      <path
         style="fill:#e6e6e6;fill-opacity:1;stroke:none"
         d="m 106.56216,594.45083 c -14.739848,0 -26.695827,11.94221 -26.695827,26.68207 0,14.73984 11.955979,26.69582 26.695827,26.69582 14.73985,0 26.68207,-11.95598 26.68207,-26.69582 0,-14.73986 -11.94222,-26.68207 -26.68207,-26.68207 z m 0,15.01296 c 6.44867,0 11.6691,5.22043 11.6691,11.66911 0,6.44868 -5.22043,11.68286 -11.6691,11.68286 -6.44869,0 -11.68287,-5.23418 -11.68287,-11.68286 0,-6.44868 5.23418,-11.66911 11.68287,-11.66911 z"
         id="path4255"
         inkscape:connector-curvature="0" />
      <path
         inkscape:connector-curvature="0"
         id="path4257"
         d="m 426.82949,487.69505 c -14.73984,0 -26.69582,11.94222 -26.69582,26.68207 0,14.73984 11.95598,26.69582 26.69582,26.69582 14.73985,0 26.68207,-11.95598 26.68207,-26.69582 0,-14.73985 -11.94222,-26.68207 -26.68207,-26.68207 z m 0,15.01296 c 6.44868,0 11.66911,5.22043 11.66911,11.66911 0,6.44868 -5.22043,11.68286 -11.66911,11.68286 -6.44868,0 -11.68286,-5.23418 -11.68286,-11.68286 0,-6.44868 5.23418,-11.66911 11.68286,-11.66911 z"
         style="fill:#e6e6e6;fill-opacity:1;stroke:none" />
      <path
         style="fill:#e6e6e6;fill-opacity:1;stroke:none"
         d="m 159.94004,914.71816 c -14.73984,0 -26.69581,11.94224 -26.69581,26.6821 0,14.73986 11.95597,26.69579 26.69581,26.69579 14.73986,0 26.68208,-11.95593 26.68208,-26.69579 0,-14.73986 -11.94222,-26.6821 -26.68208,-26.6821 z m 0,15.01298 c 6.44868,0 11.66911,5.22044 11.66911,11.66912 0,6.44867 -5.22043,11.68282 -11.66911,11.68282 -6.44868,0 -11.68286,-5.23415 -11.68286,-11.68282 0,-6.44868 5.23418,-11.66912 11.68286,-11.66912 z"
         id="path4261"
         inkscape:connector-curvature="0" />
      <path
         inkscape:connector-curvature="0"
         id="path4263"
         d="m 53.184265,861.34027 c -14.739841,0 -26.695821,11.94224 -26.695821,26.6821 0,14.73986 11.95598,26.69579 26.695821,26.69579 14.73985,0 26.682068,-11.95593 26.682068,-26.69579 0,-14.73986 -11.942218,-26.6821 -26.682068,-26.6821 z m 0,15.01298 c 6.448681,0 11.66911,5.22044 11.66911,11.66912 0,6.44867 -5.220429,11.68282 -11.66911,11.68282 -6.448681,0 -11.682863,-5.23415 -11.682863,-11.68282 0,-6.44868 5.234182,-11.66912 11.682863,-11.66912 z"
         style="fill:#e6e6e6;fill-opacity:1;stroke:none" />
      <path
         style="fill:#e6e6e6;fill-opacity:1;stroke:none"
         d="m 373.4516,754.58449 c -14.73984,0 -26.69582,11.94224 -26.69582,26.6821 0,14.73987 11.95598,26.69579 26.69582,26.69579 14.73985,0 26.68207,-11.95592 26.68207,-26.69579 0,-14.73986 -11.94222,-26.6821 -26.68207,-26.6821 z m 0,15.01299 c 6.44868,0 11.66911,5.22044 11.66911,11.66911 0,6.44867 -5.22043,11.68282 -11.66911,11.68282 -6.44868,0 -11.68286,-5.23415 -11.68286,-11.68282 0,-6.44867 5.23418,-11.66911 11.68286,-11.66911 z"
         id="path4265"
         inkscape:connector-curvature="0" />
      <path
         inkscape:connector-curvature="0"
         id="path4267"
         d="m 266.69582,701.20661 c -14.73984,0 -26.69582,11.94221 -26.69582,26.68207 0,14.73989 11.95598,26.69581 26.69582,26.69581 14.73986,0 26.68207,-11.95592 26.68207,-26.69581 0,-14.73986 -11.94221,-26.68207 -26.68207,-26.68207 z m 0,15.01296 c 6.44868,0 11.66911,5.22043 11.66911,11.66911 0,6.44869 -5.22043,11.68284 -11.66911,11.68284 -6.44868,0 -11.68286,-5.23415 -11.68286,-11.68284 0,-6.44868 5.23418,-11.66911 11.68286,-11.66911 z"
         style="fill:#e6e6e6;fill-opacity:1;stroke:none" />
      <path
         style="fill:#e6e6e6;fill-opacity:1;stroke:none"
         d="m 159.94004,647.82872 c -14.73984,0 -26.69581,11.94221 -26.69581,26.68207 0,14.73984 11.95597,26.69582 26.69581,26.69582 14.73986,0 26.68208,-11.95598 26.68208,-26.69582 0,-14.73986 -11.94222,-26.68207 -26.68208,-26.68207 z m 0,15.01296 c 6.44868,0 11.66911,5.22043 11.66911,11.66911 0,6.44868 -5.22043,11.68286 -11.66911,11.68286 -6.44868,0 -11.68286,-5.23418 -11.68286,-11.68286 0,-6.44868 5.23418,-11.66911 11.68286,-11.66911 z"
         id="path4269"
         inkscape:connector-curvature="0" />
      <path
         inkscape:connector-curvature="0"
         id="path4271"
         d="m 53.184265,594.45083 c -14.739841,0 -26.695821,11.94221 -26.695821,26.68207 0,14.73984 11.95598,26.69582 26.695821,26.69582 14.73985,0 26.682068,-11.95598 26.682068,-26.69582 0,-14.73986 -11.942218,-26.68207 -26.682068,-26.68207 z m 0,15.01296 c 6.448681,0 11.66911,5.22043 11.66911,11.66911 0,6.44868 -5.220429,11.68286 -11.66911,11.68286 -6.448681,0 -11.682863,-5.23418 -11.682863,-11.68286 0,-6.44868 5.234182,-11.66911 11.682863,-11.66911 z"
         style="fill:#e6e6e6;fill-opacity:1;stroke:none" />
      <path
         style="fill:#e6e6e6;fill-opacity:1;stroke:none"
         d="m 373.4516,487.69505 c -14.73984,0 -26.69582,11.94222 -26.69582,26.68207 0,14.73984 11.95598,26.69582 26.69582,26.69582 14.73985,0 26.68207,-11.95598 26.68207,-26.69582 0,-14.73985 -11.94222,-26.68207 -26.68207,-26.68207 z m 0,15.01296 c 6.44868,0 11.66911,5.22043 11.66911,11.66911 0,6.44868 -5.22043,11.68286 -11.66911,11.68286 -6.44868,0 -11.68286,-5.23418 -11.68286,-11.68286 0,-6.44868 5.23418,-11.66911 11.68286,-11.66911 z"
         id="path4273"
         inkscape:connector-curvature="0" />
      <path
         inkscape:connector-curvature="0"
         id="path4277"
         d="m 106.56216,914.71816 c -14.739848,0 -26.695827,11.94224 -26.695827,26.6821 0,14.73986 11.955979,26.69579 26.695827,26.69579 14.73985,0 26.68207,-11.95593 26.68207,-26.69579 0,-14.73986 -11.94222,-26.6821 -26.68207,-26.6821 z m 0,15.01298 c 6.44867,0 11.6691,5.22044 11.6691,11.66912 0,6.44867 -5.22043,11.68282 -11.6691,11.68282 -6.44869,0 -11.68287,-5.23415 -11.68287,-11.68282 0,-6.44868 5.23418,-11.66912 11.68287,-11.66912 z"
         style="fill:#e6e6e6;fill-opacity:1;stroke:none" />
      <path
         style="fill:#e6e6e6;fill-opacity:1;stroke:none"
         d="m 426.82949,807.96238 c -14.73984,0 -26.69582,11.94224 -26.69582,26.6821 0,14.73986 11.95598,26.69579 26.69582,26.69579 14.73985,0 26.68207,-11.95593 26.68207,-26.69579 0,-14.73986 -11.94222,-26.6821 -26.68207,-26.6821 z m 0,15.01299 c 6.44868,0 11.66911,5.22043 11.66911,11.66911 0,6.44867 -5.22043,11.68282 -11.66911,11.68282 -6.44868,0 -11.68286,-5.23415 -11.68286,-11.68282 0,-6.44868 5.23418,-11.66911 11.68286,-11.66911 z"
         id="path4279"
         inkscape:connector-curvature="0" />
      <path
         inkscape:connector-curvature="0"
         id="path4281"
         d="m 320.07371,754.58449 c -14.73984,0 -26.69582,11.94224 -26.69582,26.6821 0,14.73987 11.95598,26.69579 26.69582,26.69579 14.73986,0 26.68207,-11.95592 26.68207,-26.69579 0,-14.73986 -11.94221,-26.6821 -26.68207,-26.6821 z m 0,15.01299 c 6.44868,0 11.66911,5.22044 11.66911,11.66911 0,6.44867 -5.22043,11.68282 -11.66911,11.68282 -6.44868,0 -11.68286,-5.23415 -11.68286,-11.68282 0,-6.44867 5.23418,-11.66911 11.68286,-11.66911 z"
         style="fill:#e6e6e6;fill-opacity:1;stroke:none" />
      <path
         style="fill:#e6e6e6;fill-opacity:1;stroke:none"
         d="m 213.31793,701.20661 c -14.73984,0 -26.69581,11.94221 -26.69581,26.68207 0,14.73989 11.95597,26.69581 26.69581,26.69581 14.73986,0 26.68207,-11.95592 26.68207,-26.69581 0,-14.73986 -11.94221,-26.68207 -26.68207,-26.68207 z m 0,15.01296 c 6.44868,0 11.66911,5.22043 11.66911,11.66911 0,6.44869 -5.22043,11.68284 -11.66911,11.68284 -6.44868,0 -11.68286,-5.23415 -11.68286,-11.68284 0,-6.44868 5.23418,-11.66911 11.68286,-11.66911 z"
         id="path4283"
         inkscape:connector-curvature="0" />
      <path
         inkscape:connector-curvature="0"
         id="path4285"
         d="m 106.56216,647.82872 c -14.739848,0 -26.695827,11.94221 -26.695827,26.68207 0,14.73984 11.955979,26.69582 26.695827,26.69582 14.73985,0 26.68207,-11.95598 26.68207,-26.69582 0,-14.73986 -11.94222,-26.68207 -26.68207,-26.68207 z m 0,15.01296 c 6.44867,0 11.6691,5.22043 11.6691,11.66911 0,6.44868 -5.22043,11.68286 -11.6691,11.68286 -6.44869,0 -11.68287,-5.23418 -11.68287,-11.68286 0,-6.44868 5.23418,-11.66911 11.68287,-11.66911 z"
         style="fill:#e6e6e6;fill-opacity:1;stroke:none" />
      <path
         style="fill:#e6e6e6;fill-opacity:1;stroke:none"
         d="m 426.82949,541.07294 c -14.73984,0 -26.69582,11.94221 -26.69582,26.68207 0,14.73984 11.95598,26.69582 26.69582,26.69582 14.73985,0 26.68207,-11.95598 26.68207,-26.69582 0,-14.73986 -11.94222,-26.68207 -26.68207,-26.68207 z m 0,15.01296 c 6.44868,0 11.66911,5.22043 11.66911,11.66911 0,6.44868 -5.22043,11.68286 -11.66911,11.68286 -6.44868,0 -11.68286,-5.23418 -11.68286,-11.68286 0,-6.44868 5.23418,-11.66911 11.68286,-11.66911 z"
         id="path4287"
         inkscape:connector-curvature="0" />
      <path
         inkscape:connector-curvature="0"
         id="path4289"
         d="m 320.07371,487.69505 c -14.73984,0 -26.69582,11.94222 -26.69582,26.68207 0,14.73984 11.95598,26.69582 26.69582,26.69582 14.73986,0 26.68207,-11.95598 26.68207,-26.69582 0,-14.73985 -11.94221,-26.68207 -26.68207,-26.68207 z m 0,15.01296 c 6.44868,0 11.66911,5.22043 11.66911,11.66911 0,6.44868 -5.22043,11.68286 -11.66911,11.68286 -6.44868,0 -11.68286,-5.23418 -11.68286,-11.68286 0,-6.44868 5.23418,-11.66911 11.68286,-11.66911 z"
         style="fill:#e6e6e6;fill-opacity:1;stroke:none" />
      <path
         style="fill:#e6e6e6;fill-opacity:1;stroke:none"
         d="m 53.184265,914.71816 c -14.739841,0 -26.695821,11.94224 -26.695821,26.6821 0,14.73986 11.95598,26.69579 26.695821,26.69579 14.73985,0 26.682068,-11.95593 26.682068,-26.69579 0,-14.73986 -11.942218,-26.6821 -26.682068,-26.6821 z m 0,15.01298 c 6.448681,0 11.66911,5.22044 11.66911,11.66912 0,6.44867 -5.220429,11.68282 -11.66911,11.68282 -6.448681,0 -11.682863,-5.23415 -11.682863,-11.68282 0,-6.44868 5.234182,-11.66912 11.682863,-11.66912 z"
         id="path4293"
         inkscape:connector-curvature="0" />
      <path
         inkscape:connector-curvature="0"
         id="path4295"
         d="m 373.4516,807.96238 c -14.73984,0 -26.69582,11.94224 -26.69582,26.6821 0,14.73986 11.95598,26.69579 26.69582,26.69579 14.73985,0 26.68207,-11.95593 26.68207,-26.69579 0,-14.73986 -11.94222,-26.6821 -26.68207,-26.6821 z m 0,15.01299 c 6.44868,0 11.66911,5.22043 11.66911,11.66911 0,6.44867 -5.22043,11.68282 -11.66911,11.68282 -6.44868,0 -11.68286,-5.23415 -11.68286,-11.68282 0,-6.44868 5.23418,-11.66911 11.68286,-11.66911 z"
         style="fill:#e6e6e6;fill-opacity:1;stroke:none" />
      <path
         style="fill:#e6e6e6;fill-opacity:1;stroke:none"
         d="m 266.69582,754.58449 c -14.73984,0 -26.69582,11.94224 -26.69582,26.6821 0,14.73987 11.95598,26.69579 26.69582,26.69579 14.73986,0 26.68207,-11.95592 26.68207,-26.69579 0,-14.73986 -11.94221,-26.6821 -26.68207,-26.6821 z m 0,15.01299 c 6.44868,0 11.66911,5.22044 11.66911,11.66911 0,6.44867 -5.22043,11.68282 -11.66911,11.68282 -6.44868,0 -11.68286,-5.23415 -11.68286,-11.68282 0,-6.44867 5.23418,-11.66911 11.68286,-11.66911 z"
         id="path4297"
         inkscape:connector-curvature="0" />
      <path
         inkscape:connector-curvature="0"
         id="path4299"
         d="m 159.94004,701.20661 c -14.73984,0 -26.69581,11.94221 -26.69581,26.68207 0,14.73989 11.95597,26.69581 26.69581,26.69581 14.73986,0 26.68208,-11.95592 26.68208,-26.69581 0,-14.73986 -11.94222,-26.68207 -26.68208,-26.68207 z m 0,15.01296 c 6.44868,0 11.66911,5.22043 11.66911,11.66911 0,6.44869 -5.22043,11.68284 -11.66911,11.68284 -6.44868,0 -11.68286,-5.23415 -11.68286,-11.68284 0,-6.44868 5.23418,-11.66911 11.68286,-11.66911 z"
         style="fill:#e6e6e6;fill-opacity:1;stroke:none" />
      <path
         style="fill:#e6e6e6;fill-opacity:1;stroke:none"
         d="m 53.184265,647.82872 c -14.739841,0 -26.695821,11.94221 -26.695821,26.68207 0,14.73984 11.95598,26.69582 26.695821,26.69582 14.73985,0 26.682068,-11.95598 26.682068,-26.69582 0,-14.73986 -11.942218,-26.68207 -26.682068,-26.68207 z m 0,15.01296 c 6.448681,0 11.66911,5.22043 11.66911,11.66911 0,6.44868 -5.220429,11.68286 -11.66911,11.68286 -6.448681,0 -11.682863,-5.23418 -11.682863,-11.68286 0,-6.44868 5.234182,-11.66911 11.682863,-11.66911 z"
         id="path4301"
         inkscape:connector-curvature="0" />
      <path
         inkscape:connector-curvature="0"
         id="path4303"
         d="m 373.4516,541.07294 c -14.73984,0 -26.69582,11.94221 -26.69582,26.68207 0,14.73984 11.95598,26.69582 26.69582,26.69582 14.73985,0 26.68207,-11.95598 26.68207,-26.69582 0,-14.73986 -11.94222,-26.68207 -26.68207,-26.68207 z m 0,15.01296 c 6.44868,0 11.66911,5.22043 11.66911,11.66911 0,6.44868 -5.22043,11.68286 -11.66911,11.68286 -6.44868,0 -11.68286,-5.23418 -11.68286,-11.68286 0,-6.44868 5.23418,-11.66911 11.68286,-11.66911 z"
         style="fill:#e6e6e6;fill-opacity:1;stroke:none" />
      <path
         style="fill:#e6e6e6;fill-opacity:1;stroke:none"
         d="m 266.69582,487.69505 c -14.73984,0 -26.69582,11.94222 -26.69582,26.68207 0,14.73984 11.95598,26.69582 26.69582,26.69582 14.73986,0 26.68207,-11.95598 26.68207,-26.69582 0,-14.73985 -11.94221,-26.68207 -26.68207,-26.68207 z m 0,15.01296 c 6.44868,0 11.66911,5.22043 11.66911,11.66911 0,6.44868 -5.22043,11.68286 -11.66911,11.68286 -6.44868,0 -11.68286,-5.23418 -11.68286,-11.68286 0,-6.44868 5.23418,-11.66911 11.68286,-11.66911 z"
         id="path4305"
         inkscape:connector-curvature="0" />
      <path
         inkscape:connector-curvature="0"
         id="path4309"
         d="m 426.82949,861.34027 c -14.73984,0 -26.69582,11.94224 -26.69582,26.6821 0,14.73986 11.95598,26.69579 26.69582,26.69579 14.73985,0 26.68207,-11.95593 26.68207,-26.69579 0,-14.73986 -11.94222,-26.6821 -26.68207,-26.6821 z m 0,15.01298 c 6.44868,0 11.66911,5.22044 11.66911,11.66912 0,6.44867 -5.22043,11.68282 -11.66911,11.68282 -6.44868,0 -11.68286,-5.23415 -11.68286,-11.68282 0,-6.44868 5.23418,-11.66912 11.68286,-11.66912 z"
         style="fill:#e6e6e6;fill-opacity:1;stroke:none" />
      <path
         style="fill:#e6e6e6;fill-opacity:1;stroke:none"
         d="m 320.07371,807.96238 c -14.73984,0 -26.69582,11.94224 -26.69582,26.6821 0,14.73986 11.95598,26.69579 26.69582,26.69579 14.73986,0 26.68207,-11.95593 26.68207,-26.69579 0,-14.73986 -11.94221,-26.6821 -26.68207,-26.6821 z m 0,15.01299 c 6.44868,0 11.66911,5.22043 11.66911,11.66911 0,6.44867 -5.22043,11.68282 -11.66911,11.68282 -6.44868,0 -11.68286,-5.23415 -11.68286,-11.68282 0,-6.44868 5.23418,-11.66911 11.68286,-11.66911 z"
         id="path4311"
         inkscape:connector-curvature="0" />
      <path
         inkscape:connector-curvature="0"
         id="path4313"
         d="m 213.31793,754.58449 c -14.73984,0 -26.69581,11.94224 -26.69581,26.6821 0,14.73987 11.95597,26.69579 26.69581,26.69579 14.73986,0 26.68207,-11.95592 26.68207,-26.69579 0,-14.73986 -11.94221,-26.6821 -26.68207,-26.6821 z m 0,15.01299 c 6.44868,0 11.66911,5.22044 11.66911,11.66911 0,6.44867 -5.22043,11.68282 -11.66911,11.68282 -6.44868,0 -11.68286,-5.23415 -11.68286,-11.68282 0,-6.44867 5.23418,-11.66911 11.68286,-11.66911 z"
         style="fill:#e6e6e6;fill-opacity:1;stroke:none" />
      <path
         style="fill:#e6e6e6;fill-opacity:1;stroke:none"
         d="m 106.56216,701.20661 c -14.739848,0 -26.695827,11.94221 -26.695827,26.68207 0,14.73989 11.955979,26.69581 26.695827,26.69581 14.73985,0 26.68207,-11.95592 26.68207,-26.69581 0,-14.73986 -11.94222,-26.68207 -26.68207,-26.68207 z m 0,15.01296 c 6.44867,0 11.6691,5.22043 11.6691,11.66911 0,6.44869 -5.22043,11.68284 -11.6691,11.68284 -6.44869,0 -11.68287,-5.23415 -11.68287,-11.68284 0,-6.44868 5.23418,-11.66911 11.68287,-11.66911 z"
         id="path4315"
         inkscape:connector-curvature="0" />
      <path
         inkscape:connector-curvature="0"
         id="path4317"
         d="m 426.82949,594.45083 c -14.73984,0 -26.69582,11.94221 -26.69582,26.68207 0,14.73984 11.95598,26.69582 26.69582,26.69582 14.73985,0 26.68207,-11.95598 26.68207,-26.69582 0,-14.73986 -11.94222,-26.68207 -26.68207,-26.68207 z m 0,15.01296 c 6.44868,0 11.66911,5.22043 11.66911,11.66911 0,6.44868 -5.22043,11.68286 -11.66911,11.68286 -6.44868,0 -11.68286,-5.23418 -11.68286,-11.68286 0,-6.44868 5.23418,-11.66911 11.68286,-11.66911 z"
         style="fill:#e6e6e6;fill-opacity:1;stroke:none" />
      <path
         style="fill:#e6e6e6;fill-opacity:1;stroke:none"
         d="m 320.07371,541.07294 c -14.73984,0 -26.69582,11.94221 -26.69582,26.68207 0,14.73984 11.95598,26.69582 26.69582,26.69582 14.73986,0 26.68207,-11.95598 26.68207,-26.69582 0,-14.73986 -11.94221,-26.68207 -26.68207,-26.68207 z m 0,15.01296 c 6.44868,0 11.66911,5.22043 11.66911,11.66911 0,6.44868 -5.22043,11.68286 -11.66911,11.68286 -6.44868,0 -11.68286,-5.23418 -11.68286,-11.68286 0,-6.44868 5.23418,-11.66911 11.68286,-11.66911 z"
         id="path4319"
         inkscape:connector-curvature="0" />
      <path
         inkscape:connector-curvature="0"
         id="path4321"
         d="m 213.31793,487.69505 c -14.73984,0 -26.69581,11.94222 -26.69581,26.68207 0,14.73984 11.95597,26.69582 26.69581,26.69582 14.73986,0 26.68207,-11.95598 26.68207,-26.69582 0,-14.73985 -11.94221,-26.68207 -26.68207,-26.68207 z m 0,15.01296 c 6.44868,0 11.66911,5.22043 11.66911,11.66911 0,6.44868 -5.22043,11.68286 -11.66911,11.68286 -6.44868,0 -11.68286,-5.23418 -11.68286,-11.68286 0,-6.44868 5.23418,-11.66911 11.68286,-11.66911 z"
         style="fill:#e6e6e6;fill-opacity:1;stroke:none" />
      <path
         style="fill:#e6e6e6;fill-opacity:1;stroke:none"
         d="m 373.4516,861.34027 c -14.73984,0 -26.69582,11.94224 -26.69582,26.6821 0,14.73986 11.95598,26.69579 26.69582,26.69579 14.73985,0 26.68207,-11.95593 26.68207,-26.69579 0,-14.73986 -11.94222,-26.6821 -26.68207,-26.6821 z m 0,15.01298 c 6.44868,0 11.66911,5.22044 11.66911,11.66912 0,6.44867 -5.22043,11.68282 -11.66911,11.68282 -6.44868,0 -11.68286,-5.23415 -11.68286,-11.68282 0,-6.44868 5.23418,-11.66912 11.68286,-11.66912 z"
         id="path4325"
         inkscape:connector-curvature="0" />
      <path
         inkscape:connector-curvature="0"
         id="path4327"
         d="m 266.69582,807.96238 c -14.73984,0 -26.69582,11.94224 -26.69582,26.6821 0,14.73986 11.95598,26.69579 26.69582,26.69579 14.73986,0 26.68207,-11.95593 26.68207,-26.69579 0,-14.73986 -11.94221,-26.6821 -26.68207,-26.6821 z m 0,15.01299 c 6.44868,0 11.66911,5.22043 11.66911,11.66911 0,6.44867 -5.22043,11.68282 -11.66911,11.68282 -6.44868,0 -11.68286,-5.23415 -11.68286,-11.68282 0,-6.44868 5.23418,-11.66911 11.68286,-11.66911 z"
         style="fill:#e6e6e6;fill-opacity:1;stroke:none" />
      <path
         style="fill:#e6e6e6;fill-opacity:1;stroke:none"
         d="m 159.94004,754.58449 c -14.73984,0 -26.69581,11.94224 -26.69581,26.6821 0,14.73987 11.95597,26.69579 26.69581,26.69579 14.73986,0 26.68208,-11.95592 26.68208,-26.69579 0,-14.73986 -11.94222,-26.6821 -26.68208,-26.6821 z m 0,15.01299 c 6.44868,0 11.66911,5.22044 11.66911,11.66911 0,6.44867 -5.22043,11.68282 -11.66911,11.68282 -6.44868,0 -11.68286,-5.23415 -11.68286,-11.68282 0,-6.44867 5.23418,-11.66911 11.68286,-11.66911 z"
         id="path4329"
         inkscape:connector-curvature="0" />
      <path
         inkscape:connector-curvature="0"
         id="path4331"
         d="m 53.184265,701.20661 c -14.739841,0 -26.695821,11.94221 -26.695821,26.68207 0,14.73989 11.95598,26.69581 26.695821,26.69581 14.73985,0 26.682068,-11.95592 26.682068,-26.69581 0,-14.73986 -11.942218,-26.68207 -26.682068,-26.68207 z m 0,15.01296 c 6.448681,0 11.66911,5.22043 11.66911,11.66911 0,6.44869 -5.220429,11.68284 -11.66911,11.68284 -6.448681,0 -11.682863,-5.23415 -11.682863,-11.68284 0,-6.44868 5.234182,-11.66911 11.682863,-11.66911 z"
         style="fill:#e6e6e6;fill-opacity:1;stroke:none" />
      <path
         style="fill:#e6e6e6;fill-opacity:1;stroke:none"
         d="m 373.4516,594.45083 c -14.73984,0 -26.69582,11.94221 -26.69582,26.68207 0,14.73984 11.95598,26.69582 26.69582,26.69582 14.73985,0 26.68207,-11.95598 26.68207,-26.69582 0,-14.73986 -11.94222,-26.68207 -26.68207,-26.68207 z m 0,15.01296 c 6.44868,0 11.66911,5.22043 11.66911,11.66911 0,6.44868 -5.22043,11.68286 -11.66911,11.68286 -6.44868,0 -11.68286,-5.23418 -11.68286,-11.68286 0,-6.44868 5.23418,-11.66911 11.68286,-11.66911 z"
         id="path4333"
         inkscape:connector-curvature="0" />
      <path
         inkscape:connector-curvature="0"
         id="path4335"
         d="m 266.69582,541.07294 c -14.73984,0 -26.69582,11.94221 -26.69582,26.68207 0,14.73984 11.95598,26.69582 26.69582,26.69582 14.73986,0 26.68207,-11.95598 26.68207,-26.69582 0,-14.73986 -11.94221,-26.68207 -26.68207,-26.68207 z m 0,15.01296 c 6.44868,0 11.66911,5.22043 11.66911,11.66911 0,6.44868 -5.22043,11.68286 -11.66911,11.68286 -6.44868,0 -11.68286,-5.23418 -11.68286,-11.68286 0,-6.44868 5.23418,-11.66911 11.68286,-11.66911 z"
         style="fill:#e6e6e6;fill-opacity:1;stroke:none" />
      <path
         style="fill:#e6e6e6;fill-opacity:1;stroke:none"
         d="m 159.94004,487.69505 c -14.73984,0 -26.69581,11.94222 -26.69581,26.68207 0,14.73984 11.95597,26.69582 26.69581,26.69582 14.73986,0 26.68208,-11.95598 26.68208,-26.69582 0,-14.73985 -11.94222,-26.68207 -26.68208,-26.68207 z m 0,15.01296 c 6.44868,0 11.66911,5.22043 11.66911,11.66911 0,6.44868 -5.22043,11.68286 -11.66911,11.68286 -6.44868,0 -11.68286,-5.23418 -11.68286,-11.68286 0,-6.44868 5.23418,-11.66911 11.68286,-11.66911 z"
         id="path4337"
         inkscape:connector-curvature="0" />
      <path
         inkscape:connector-curvature="0"
         id="path4761"
         d="m 106.56216,434.83791 c -14.739848,0 -26.695827,11.94222 -26.695827,26.68207 0,14.73984 11.955979,26.69582 26.695827,26.69582 14.73985,0 26.68207,-11.95598 26.68207,-26.69582 0,-14.73985 -11.94222,-26.68207 -26.68207,-26.68207 z m 0,15.01296 c 6.44867,0 11.6691,5.22043 11.6691,11.66911 0,6.44868 -5.22043,11.68286 -11.6691,11.68286 -6.44869,0 -11.68287,-5.23418 -11.68287,-11.68286 0,-6.44868 5.23418,-11.66911 11.68287,-11.66911 z"
         style="fill:#e6e6e6;fill-opacity:1;stroke:none" />
      <path
         style="fill:#e6e6e6;fill-opacity:1;stroke:none"
         d="m 53.184265,434.83791 c -14.739841,0 -26.695821,11.94222 -26.695821,26.68207 0,14.73984 11.95598,26.69582 26.695821,26.69582 14.73985,0 26.682068,-11.95598 26.682068,-26.69582 0,-14.73985 -11.942218,-26.68207 -26.682068,-26.68207 z m 0,15.01296 c 6.448681,0 11.66911,5.22043 11.66911,11.66911 0,6.44868 -5.220429,11.68286 -11.66911,11.68286 -6.448681,0 -11.682863,-5.23418 -11.682863,-11.68286 0,-6.44868 5.234182,-11.66911 11.682863,-11.66911 z"
         id="path4763"
         inkscape:connector-curvature="0" />
      <path
         style="fill:#e6e6e6;fill-opacity:1;stroke:none"
         d="m 426.82949,434.83791 c -14.73984,0 -26.69582,11.94222 -26.69582,26.68207 0,14.73984 11.95598,26.69582 26.69582,26.69582 14.73985,0 26.68207,-11.95598 26.68207,-26.69582 0,-14.73985 -11.94222,-26.68207 -26.68207,-26.68207 z m 0,15.01296 c 6.44868,0 11.66911,5.22043 11.66911,11.66911 0,6.44868 -5.22043,11.68286 -11.66911,11.68286 -6.44868,0 -11.68286,-5.23418 -11.68286,-11.68286 0,-6.44868 5.23418,-11.66911 11.68286,-11.66911 z"
         id="path4765"
         inkscape:connector-curvature="0" />
      <path
         inkscape:connector-curvature="0"
         id="path4767"
         d="m 373.4516,434.83791 c -14.73984,0 -26.69582,11.94222 -26.69582,26.68207 0,14.73984 11.95598,26.69582 26.69582,26.69582 14.73985,0 26.68207,-11.95598 26.68207,-26.69582 0,-14.73985 -11.94222,-26.68207 -26.68207,-26.68207 z m 0,15.01296 c 6.44868,0 11.66911,5.22043 11.66911,11.66911 0,6.44868 -5.22043,11.68286 -11.66911,11.68286 -6.44868,0 -11.68286,-5.23418 -11.68286,-11.68286 0,-6.44868 5.23418,-11.66911 11.68286,-11.66911 z"
         style="fill:#e6e6e6;fill-opacity:1;stroke:none" />
      <path
         style="fill:#e6e6e6;fill-opacity:1;stroke:none"
         d="m 320.07371,434.83791 c -14.73984,0 -26.69582,11.94222 -26.69582,26.68207 0,14.73984 11.95598,26.69582 26.69582,26.69582 14.73986,0 26.68207,-11.95598 26.68207,-26.69582 0,-14.73985 -11.94221,-26.68207 -26.68207,-26.68207 z m 0,15.01296 c 6.44868,0 11.66911,5.22043 11.66911,11.66911 0,6.44868 -5.22043,11.68286 -11.66911,11.68286 -6.44868,0 -11.68286,-5.23418 -11.68286,-11.68286 0,-6.44868 5.23418,-11.66911 11.68286,-11.66911 z"
         id="path4769"
         inkscape:connector-curvature="0" />
      <path
         inkscape:connector-curvature="0"
         id="path4771"
         d="m 266.69582,434.83791 c -14.73984,0 -26.69582,11.94222 -26.69582,26.68207 0,14.73984 11.95598,26.69582 26.69582,26.69582 14.73986,0 26.68207,-11.95598 26.68207,-26.69582 0,-14.73985 -11.94221,-26.68207 -26.68207,-26.68207 z m 0,15.01296 c 6.44868,0 11.66911,5.22043 11.66911,11.66911 0,6.44868 -5.22043,11.68286 -11.66911,11.68286 -6.44868,0 -11.68286,-5.23418 -11.68286,-11.68286 0,-6.44868 5.23418,-11.66911 11.68286,-11.66911 z"
         style="fill:#e6e6e6;fill-opacity:1;stroke:none" />
      <path
         style="fill:#e6e6e6;fill-opacity:1;stroke:none"
         d="m 213.31793,434.83791 c -14.73984,0 -26.69581,11.94222 -26.69581,26.68207 0,14.73984 11.95597,26.69582 26.69581,26.69582 14.73986,0 26.68207,-11.95598 26.68207,-26.69582 0,-14.73985 -11.94221,-26.68207 -26.68207,-26.68207 z m 0,15.01296 c 6.44868,0 11.66911,5.22043 11.66911,11.66911 0,6.44868 -5.22043,11.68286 -11.66911,11.68286 -6.44868,0 -11.68286,-5.23418 -11.68286,-11.68286 0,-6.44868 5.23418,-11.66911 11.68286,-11.66911 z"
         id="path4773"
         inkscape:connector-curvature="0" />
      <path
         inkscape:connector-curvature="0"
         id="path4775"
         d="m 159.94004,434.83791 c -14.73984,0 -26.69581,11.94222 -26.69581,26.68207 0,14.73984 11.95597,26.69582 26.69581,26.69582 14.73986,0 26.68208,-11.95598 26.68208,-26.69582 0,-14.73985 -11.94222,-26.68207 -26.68208,-26.68207 z m 0,15.01296 c 6.44868,0 11.66911,5.22043 11.66911,11.66911 0,6.44868 -5.22043,11.68286 -11.66911,11.68286 -6.44868,0 -11.68286,-5.23418 -11.68286,-11.68286 0,-6.44868 5.23418,-11.66911 11.68286,-11.66911 z"
         style="fill:#e6e6e6;fill-opacity:1;stroke:none" />
    </g>
    <g
       id="g4871"
       transform="translate(-400,0)">
      <g
         transform="translate(360.11938,-7.8918167)"
         id="g4863">
        <path
           sodipodi:type="arc"
           style="fill:none;stroke:#ffffff;stroke-width:3.17647052;stroke-miterlimit:4;stroke-dasharray:none"
           id="path4859"
           sodipodi:cx="-55"
           sodipodi:cy="64.285713"
           sodipodi:rx="19.285715"
           sodipodi:ry="19.285715"
           d="m -35.714285,64.285713 c 0,10.651207 -8.634509,19.285715 -19.285715,19.285715 -10.651206,0 -19.285715,-8.634508 -19.285715,-19.285715 0,-10.651206 8.634509,-19.285715 19.285715,-19.285715 10.651206,0 19.285715,8.634509 19.285715,19.285715 z"
           transform="matrix(0.62962964,0,0,0.62962964,117.48677,253.2387)" />
        <path
           style="fill:none;stroke:#ffffff;stroke-width:2;stroke-linecap:square;stroke-linejoin:miter;stroke-miterlimit:4;stroke-opacity:1;stroke-dasharray:none"
           d="m 82.857143,260.60002 0,19.63954"
           id="path4861"
           inkscape:connector-curvature="0" />
      </g>
      <path
         inkscape:connector-curvature="0"
         id="path4869"
         d="m 442.92301,286.12262 -4.71441,6.45226"
         style="fill:none;stroke:#ffffff;stroke-width:2;stroke-linecap:butt;stroke-linejoin:miter;stroke-miterlimit:4;stroke-opacity:1;stroke-dasharray:none" />
    </g>
    <text
       xml:space="preserve"
       style="font-size:13px;font-style:normal;font-weight:normal;line-height:125%;letter-spacing:0px;word-spacing:0px;fill:#000000;fill-opacity:1;stroke:none;font-family:Sans"
       x="28.571428"
       y="70"
       id="text4877"
       sodipodi:linespacing="125%"
       transform="translate(0,252.36215)"><tspan
         sodipodi:role="line"
         id="tspan4879"
         x="28.571428"
         y="70" /></text>
    <text
       sodipodi:linespacing="125%"
       id="text4885"
       y="351.22925"
       x="20.890509"
       style="font-size:23.51231575px;font-style:normal;font-weight:normal;line-height:125%;letter-spacing:0px;word-spacing:0px;fill:#000000;fill-opacity:1;stroke:none;font-family:Sans"
       xml:space="preserve"><tspan
         style="font-style:normal;font-variant:normal;font-weight:normal;font-stretch:normal;fill:#ffffff;font-family:Ubuntu;-inkscape-font-specification:Ubuntu"
         y="351.22925"
         x="20.890509"
         id="tspan4887"
         sodipodi:role="line">Score  12548</tspan></text>
  </g>
</svg>
